{
  "accessors": [
    {
      "bufferView": 2,
      "componentType": 5126,
      "count": 123,
      "max": [
        0.46771717071533203,
        0.4677165150642395,
        0.44482421875
      ],
      "min": [
        -0.46771717071533203,
        -0.4677165150642395,
        -0.44482421875
      ],
      "type": "VEC3"
    },
    {
      "bufferView": 2,
      "byteOffset": 1476,
      "componentType": 5126,
      "count": 123,
      "max": [
        1,
        1,
        0.95105689764022827
      ],
      "min": [
        -1,
        -1,
        -0.95105648040771484
      ],
      "type": "VEC3"
    },
    {
      "bufferView": 3,
      "componentType": 5126,
      "count": 123,
      "max": [
        1,
        0.15180128812789917,
        1,
        1
      ],
      "min": [
        -1,
        -0.18637226521968842,
        -1,
        1
      ],
      "type": "VEC4"
    },
    {
      "bufferView": 1,
      "componentType": 5126,
      "count": 123,
      "max": [
        0.32537698745727539,
        0.075182996690273285
      ],
      "min": [
        0.25580799579620361,
        0.0056139999069273472
      ],
      "type": "VEC2"
    },
    {
      "bufferView": 0,
      "componentType": 5125,
      "count": 540,
      "max": [
        122
      ],
      "min": [
        0
      ],
      "type": "SCALAR"
    },
    {
      "bufferView": 2,
      "byteOffset": 2952,
      "componentType": 5126,
      "count": 123,
      "max": [
        -13.457834243774414,
        1.7394390106201172,
        -22.013731002807617
      ],
      "min": [
        -14.393268585205078,
        0.80400598049163818,
        -22.903379440307617
      ],
      "type": "VEC3"
    },
    {
      "bufferView": 2,
      "byteOffset": 4428,
      "componentType": 5126,
      "count": 123,
      "max": [
        1,
        1,
        0.95105689764022827
      ],
      "min": [
        -1,
        -1,
        -0.95105648040771484
      ],
      "type": "VEC3"
    },
    {
      "bufferView": 3,
      "byteOffset": 1968,
      "componentType": 5126,
      "count": 123,
      "max": [
        1,
        0.15180128812789917,
        1,
        1
      ],
      "min": [
        -1,
        -0.18637226521968842,
        -1,
        1
      ],
      "type": "VEC4"
    },
    {
      "bufferView": 1,
      "byteOffset": 984,
      "componentType": 5126,
      "count": 123,
      "max": [
        0.32537698745727539,
        0.075182996690273285
      ],
      "min": [
        0.25580799579620361,
        0.0056139999069273472
      ],
      "type": "VEC2"
    },
    {
      "bufferView": 0,
      "byteOffset": 2160,
      "componentType": 5125,
      "count": 540,
      "max": [
        122
      ],
      "min": [
        0
      ],
      "type": "SCALAR"
    },
    {
      "bufferView": 2,
      "byteOffset": 5904,
      "componentType": 5126,
      "count": 34,
      "max": [
        15.036761283874512,
        2.542158842086792,
        15.109733581542969
      ],
      "min": [
        -15.036761283874512,
        2.3868551254272461,
        -14.968395233154297
      ],
      "type": "VEC3"
    },
    {
      "bufferView": 2,
      "byteOffset": 6312,
      "componentType": 5126,
      "count": 34,
      "max": [
        0,
        1,
        1
      ],
      "min": [
        -7.134914881135046e-08,
        -1,
        -1
      ],
      "type": "VEC3"
    },
    {
      "bufferView": 1,
      "byteOffset": 1968,
      "componentType": 5126,
      "count": 34,
      "max": [
        0.43192699551582336,
        0.53533601760864258
      ],
      "min": [
        0.020630000159144402,
        0.12389100342988968
      ],
      "type": "VEC2"
    },
    {
      "bufferView": 0,
      "byteOffset": 4320,
      "componentType": 5125,
      "count": 78,
      "max": [
        33
      ],
      "min": [
        0
      ],
      "type": "SCALAR"
    },
    {
      "bufferView": 2,
      "byteOffset": 6720,
      "componentType": 5126,
      "count": 1147,
      "max": [
        15.565456390380859,
        2.6789178848266602,
        15.563970565795898
      ],
      "min": [
        -15.574073791503906,
        -0.011647224426269531,
        -15.563970565795898
      ],
      "type": "VEC3"
    },
    {
      "bufferView": 2,
      "byteOffset": 20484,
      "componentType": 5126,
      "count": 1147,
      "max": [
        1,
        1,
        1
      ],
      "min": [
        -1,
        -1,
        -1
      ],
      "type": "VEC3"
    },
    {
      "bufferView": 3,
      "byteOffset": 3936,
      "componentType": 5126,
      "count": 1147,
      "max": [
        1,
        1,
        1,
        1
      ],
      "min": [
        -1,
        -1,
        -1,
        1
      ],
      "type": "VEC4"
    },
    {
      "bufferView": 1,
      "byteOffset": 2240,
      "componentType": 5126,
      "count": 1147,
      "max": [
        0.97710102796554565,
        0.99000000953674316
      ],
      "min": [
        0.0099999997764825821,
        0.0099999997764825821
      ],
      "type": "VEC2"
    },
    {
      "bufferView": 0,
      "byteOffset": 4632,
      "componentType": 5125,
      "count": 2304,
      "max": [
        1146
      ],
      "min": [
        0
      ],
      "type": "SCALAR"
    },
    {
      "bufferView": 4,
      "componentType": 5126,
      "count": 1283,
      "max": [
        41.583332061767578
      ],
      "min": [
        0.041666667908430099
      ],
      "type": "SCALAR"
    },
    {
      "bufferView": 5,
      "componentType": 5126,
      "count": 1283,
      "max": [
        14.456650733947754,
        1.2717225551605225,
        24.538141250610352
      ],
      "min": [
        -14.187931060791016,
        0.49820387363433838,
        -14.293251037597656
      ],
      "type": "VEC3"
    },
    {
      "bufferView": 4,
      "byteOffset": 5132,
      "componentType": 5126,
      "count": 1283,
      "max": [
        41.583332061767578
      ],
      "min": [
        0.041666667908430099
      ],
      "type": "SCALAR"
    },
    {
      "bufferView": 6,
      "componentType": 5126,
      "count": 1283,
      "max": [
        0.99585968255996704,
        0.99405014514923096,
        0.99273717403411865,
        1
      ],
      "min": [
        -0.85649842023849487,
        -0.81686413288116455,
        -0.84655171632766724,
        -0.49905508756637573
      ],
      "type": "VEC4"
    }
  ],
  "animations": [
    {
      "channels": [
        {
          "sampler": 0,
          "target": {
            "node": 8,
            "path": "translation"
          }
        },
        {
          "sampler": 1,
          "target": {
            "node": 8,
            "path": "rotation"
          }
        }
      ],
      "name": "Take 001",
      "samplers": [
        {
          "input": 19,
          "interpolation": "LINEAR",
          "output": 20
        },
        {
          "input": 21,
          "interpolation": "LINEAR",
          "output": 22
        }
      ]
    }
  ],
  "asset": {
    "extras": {
      "author": "tasha.kosaykina (https://sketchfab.com/tasha.kosaykina)",
      "license": "CC-BY-4.0 (http://creativecommons.org/licenses/by/4.0/)",
      "source": "https://sketchfab.com/3d-models/3december2020-maze-985d35cbf9f94940a9fd99ac4f4aa4ac",
      "title": "3December2020 | Maze"
    },
    "generator": "Sketchfab-10.33.1",
    "version": "2.0"
  },
  "bufferViews": [
    {
      "buffer": 0,
      "byteLength": 13848,
      "byteOffset": 0,
      "name": "floatBufferViews",
      "target": 34963
    },
    {
      "buffer": 0,
      "byteLength": 11416,
      "byteOffset": 13848,
      "byteStride": 8,
      "name": "floatBufferViews",
      "target": 34962
    },
    {
      "buffer": 0,
      "byteLength": 34248,
      "byteOffset": 25264,
      "byteStride": 12,
      "name": "floatBufferViews",
      "target": 34962
    },
    {
      "buffer": 0,
      "byteLength": 22288,
      "byteOffset": 59512,
      "byteStride": 16,
      "name": "floatBufferViews",
      "target": 34962
    },
    {
      "buffer": 0,
      "byteLength": 10264,
      "byteOffset": 81800,
      "name": "floatBufferViews"
    },
    {
      "buffer": 0,
      "byteLength": 15396,
      "byteOffset": 92064,
      "byteStride": 12,
      "name": "floatBufferViews"
    },
    {
      "buffer": 0,
      "byteLength": 20528,
      "byteOffset": 107460,
      "byteStride": 16,
      "name": "floatBufferViews"
    }
  ],
  "buffers": [
    {
      "byteLength": 127988,
      "uri": "scene.bin"
    }
  ],
  "images": [
    {
      "uri": "textures/lambert5_baseColor.png"
    },
    {
      "uri": "textures/lambert5_metallicRoughness.png"
    },
    {
      "uri": "textures/lambert5_normal.png"
    },
    {
      "uri": "textures/lambert7_baseColor.png"
    }
  ],
  "materials": [
    {
      "doubleSided": true,
      "name": "lambert5",
      "normalTexture": {
        "index": 2,
        "scale": 1,
        "texCoord": 0
      },
      "occlusionTexture": {
        "index": 1,
        "strength": 1,
        "texCoord": 0
      },
      "pbrMetallicRoughness": {
        "baseColorFactor": [
          1,
          1,
          1,
          1
        ],
        "baseColorTexture": {
          "index": 0,
          "texCoord": 0
        },
        "metallicFactor": 1,
        "metallicRoughnessTexture": {
          "index": 1,
          "texCoord": 0
        },
        "roughnessFactor": 1
      }
    },
    {
      "alphaMode": "BLEND",
      "doubleSided": true,
      "emissiveFactor": [
        0,
        0,
        0
      ],
      "name": "lambert7",
      "occlusionTexture": {
        "index": 1,
        "strength": 1,
        "texCoord": 0
      },
      "pbrMetallicRoughness": {
        "baseColorFactor": [
          0.24491697523545472,
          0.24491697523545472,
          0.24491697523545472,
          0.37868078482875195
        ],
        "baseColorTexture": {
          "index": 3,
          "texCoord": 0
        },
        "metallicFactor": 0.08683247298883072,
        "metallicRoughnessTexture": {
          "index": 1,
          "texCoord": 0
        },
        "roughnessFactor": 1
      }
    }
  ],
  "meshes": [
    {
      "name": "polySurface7_lambert5_0",
      "primitives": [
        {
          "attributes": {
            "NORMAL": 1,
            "POSITION": 0,
            "TANGENT": 2,
            "TEXCOORD_0": 3
          },
          "indices": 4,
          "material": 0,
          "mode": 4
        }
      ]
    },
    {
      "name": "polySurface12_lambert5_0",
      "primitives": [
        {
          "attributes": {
            "NORMAL": 6,
            "POSITION": 5,
            "TANGENT": 7,
            "TEXCOORD_0": 8
          },
          "indices": 9,
          "material": 0,
          "mode": 4
        }
      ]
    },
    {
      "name": "polySurface19_lambert7_0",
      "primitives": [
        {
          "attributes": {
            "NORMAL": 11,
            "POSITION": 10,
            "TEXCOORD_0": 12
          },
          "indices": 13,
          "material": 1,
          "mode": 4
        }
      ]
    },
    {
      "name": "polySurface14_lambert5_0",
      "primitives": [
        {
          "attributes": {
            "NORMAL": 15,
            "POSITION": 14,
            "TANGENT": 16,
            "TEXCOORD_0": 17
          },
          "indices": 18,
          "material": 0,
          "mode": 4
        }
      ]
    }
  ],
  "nodes": [
    {
      "children": [
        1
      ],
      "name": "RootNode (gltf orientation matrix)",
      "rotation": [
        -0.70710678118654746,
        -0,
        -0,
        0.70710678118654757
      ]
    },
    {
      "children": [
        2
      ],
      "name": "RootNode (model correction matrix)"
    },
    {
      "children": [
        3
      ],
      "matrix": [
        1,
        0,
        0,
        0,
        0,
        0,
        1,
        0,
        0,
        -1,
        0,
        0,
        0,
        0,
        0,
        1
      ],
      "name": "fcee60f333e245ef887dd9f497bce2fa.fbx"
    },
    {
      "children": [
        4
      ],
      "name": ""
    },
    {
      "children": [
        5,
        21,
        23,
        25,
        27,
        29,
        45,
        47
      ],
      "name": "RootNode"
    },
    {
      "children": [
        6,
        8,
        10,
        12,
        14,
        16,
        18,
        19
      ],
      "name": "polySurface5"
    },
    {
      "children": [
        7
      ],
      "name": "polySurface6",
      "translation": [
        0,
        9.6090211868286133,
        0
      ]
    },
    {
      "name": "transform12"
    },
    {
      "children": [
        9
      ],
      "name": "polySurface7",
      "translation": [
        -13.925551414489746,
        1.2717225551605225,
        -13.994033813476562
      ]
    },
    {
      "mesh": 0,
      "name": "polySurface7_lambert5_0"
    },
    {
      "children": [
        11
      ],
      "name": "polySurface8"
    },
    {
      "name": "transform8"
    },
    {
      "children": [
        13
      ],
      "name": "polySurface9"
    },
    {
      "name": "transform7"
    },
    {
      "children": [
        15
      ],
      "name": "polySurface10"
    },
    {
      "name": "transform9"
    },
    {
      "children": [
        17
      ],
      "name": "polySurface11"
    },
    {
      "name": "transform10"
    },
    {
      "name": "transform6"
    },
    {
      "children": [
        20
      ],
      "name": "polySurface12",
      "translation": [
        4.7082586288452148,
        -0.77435779571533203,
        4.7259292602539062
      ]
    },
    {
      "mesh": 1,
      "name": "polySurface12_lambert5_0"
    },
    {
      "children": [
        22
      ],
      "name": "polySurface8"
    },
    {
      "name": "transform14"
    },
    {
      "children": [
        24
      ],
      "name": "polySurface11",
      "translation": [
        0,
        -13.274165153503418,
        0
      ]
    },
    {
      "name": "transform13"
    },
    {
      "children": [
        26
      ],
      "name": "pPlane1",
      "rotation": [
        0.7071068286895752,
        0,
        0,
        0.7071068286895752
      ],
      "scale": [
        2.7124142646789551,
        1,
        0.15399467945098877
      ],
      "translation": [
        13.650527954101562,
        2.4651615619659424,
        15.108428001403809
      ]
    },
    {
      "name": "transform15"
    },
    {
      "children": [
        28
      ],
      "name": "pPlane2",
      "rotation": [
        -6.2803702566467407e-16,
        0.7071068286895752,
        -0.7071068286895752,
        -7.1463269787338862e-16
      ],
      "scale": [
        2.7124142646789551,
        1,
        0.15399467945098877
      ],
      "translation": [
        -13.644967079162598,
        2.4651615619659424,
        -14.968395233154297
      ]
    },
    {
      "name": "transform11",
      "rotation": [
        3.944304526105059e-31,
        1.6008282913071542e-31,
        -0,
        1
      ]
    },
    {
      "children": [
        30,
        32,
        34,
        36,
        38,
        40,
        42,
        44
      ],
      "name": "pPlane3"
    },
    {
      "children": [
        31
      ],
      "name": "polySurface13"
    },
    {
      "name": "transform17"
    },
    {
      "children": [
        33
      ],
      "name": "polySurface14"
    },
    {
      "name": "transform23"
    },
    {
      "children": [
        35
      ],
      "name": "polySurface15"
    },
    {
      "name": "transform22"
    },
    {
      "children": [
        37
      ],
      "name": "polySurface16"
    },
    {
      "name": "transform18"
    },
    {
      "children": [
        39
      ],
      "name": "polySurface17"
    },
    {
      "name": "transform19"
    },
    {
      "children": [
        41
      ],
      "name": "polySurface18"
    },
    {
      "name": "transform21"
    },
    {
      "children": [
        43
      ],
      "name": "polySurface19"
    },
    {
      "name": "transform20"
    },
    {
      "name": "transform16"
    },
    {
      "children": [
        46
      ],
      "name": "polySurface19"
    },
    {
      "mesh": 2,
      "name": "polySurface19_lambert7_0"
    },
    {
      "children": [
        48
      ],
      "name": "polySurface14"
    },
    {
      "mesh": 3,
      "name": "polySurface14_lambert5_0"
    }
  ],
  "samplers": [
    {
      "magFilter": 9729,
      "minFilter": 9987,
      "wrapS": 10497,
      "wrapT": 10497
    }
  ],
  "scene": 0,
  "scenes": [
    {
      "name": "OSG_Scene",
      "nodes": [
        0
      ]
    }
  ],
  "textures": [
    {
      "sampler": 0,
      "source": 0
    },
    {
      "sampler": 0,
      "source": 1
    },
    {
      "sampler": 0,
      "source": 2
    },
    {
      "sampler": 0,
      "source": 3
    }
  ]
}

